<svg preserveAspectRatio="none" width="100%" height="100%" overflow="visible" style="display: block;" viewBox="0 0 84.6254 38.4066" fill="none" xmlns="http://www.w3.org/2000/svg">
<g id="Fit.ai">
<path d="M0 38.4066V0H15.3626V7.48492H7.72496V13.5951H14.9698V20.9927H7.72496V38.4066H0Z" fill="var(--fill-0, white)"/>
<path d="M17.5012 38.4066V0H24.9206V38.4066H17.5012Z" fill="var(--fill-0, white)"/>
<path d="M31.2708 38.4066V7.37581H26.71V0H43.5129V7.37581H38.9521V38.4066H31.2708Z" fill="var(--fill-0, white)"/>
<path d="M45.1495 38.3848V31.8818H52.9618V38.3848H45.1495Z" fill="var(--fill-0, white)"/>
<path d="M54.8167 38.4066L58.5264 0H71.5541L75.1983 38.4066H67.9316L67.3861 32.2091H62.7598L62.2798 38.4066H54.8167ZM63.3054 26.0772H66.7969L65.1166 6.54658H64.7674L63.3054 26.0772Z" fill="var(--fill-0, white)"/>
<path d="M77.2059 38.4066V0H84.6254V38.4066H77.2059Z" fill="var(--fill-0, white)"/>
</g>
</svg>
